<svg xmlns="http://www.w3.org/2000/svg" xmlns:xlink="http://www.w3.org/1999/xlink" width="115.48" height="111.568" viewBox="0 0 115.48 111.568">
  <defs>
    <clipPath id="clip-path">
      <rect id="Rectángulo_9656" data-name="Rectángulo 9656" width="50.368" height="50.368" fill="#fff" stroke="#707070" stroke-width="1"/>
    </clipPath>
  </defs>
  <g id="Grupo_58218" data-name="Grupo 58218" transform="translate(-113.76 -136.431)">
    <g id="Grupo_58217" data-name="Grupo 58217" transform="translate(0.476 2)">
      <path id="Trazado_63580" data-name="Trazado 63580" d="M50,0A50,50,0,1,1,0,50,50,50,0,0,1,50,0Z" transform="translate(128.765 145.999)" fill="#56cbff"/>
      <g id="MDI_check" data-name="MDI / check" transform="translate(146.448 163.999)">
        <g id="Boundary" fill="#fff" stroke="rgba(0,0,0,0)" stroke-width="1" opacity="0">
          <rect width="65" height="65" stroke="none"/>
          <rect x="0.5" y="0.5" width="64" height="64" fill="none"/>
        </g>
        <g id="Enmascarar_grupo_299" data-name="Enmascarar grupo 299" transform="translate(7.637 7.204)" clip-path="url(#clip-path)">
          <g id="person-fill-check" transform="translate(0 0)">
            <path id="Trazado_63587" data-name="Trazado 63587" d="M44.126,57.225A12.592,12.592,0,1,0,31.534,44.633,12.592,12.592,0,0,0,44.126,57.225ZM50.166,41.06l-4.8,8.008a2.7,2.7,0,0,1-4.224.518l-2.785-2.781A1.8,1.8,0,1,1,40.9,44.259L42.87,46.23l4.209-7.019a1.8,1.8,0,0,1,3.087,1.849ZM38.729,17.65A10.793,10.793,0,1,1,27.936,6.857,10.793,10.793,0,0,1,38.729,17.65Z" transform="translate(-6.35 -6.857)" fill="#fff"/>
            <path id="Trazado_63588" data-name="Trazado 63588" d="M6.857,45.248c0,3.6,3.6,3.6,3.6,3.6H29.364A16.212,16.212,0,0,1,34,31.242a38,38,0,0,0-5.555-.385C10.455,30.857,6.857,41.65,6.857,45.248Z" transform="translate(-6.857 -5.673)" fill="#fff"/>
          </g>
        </g>
      </g>
    </g>
    <g id="Grupo_58219" data-name="Grupo 58219" transform="translate(0 2)">
      <g id="MDI_star-four-points" data-name="MDI / star-four-points" transform="translate(127.854 148.525)">
        <g id="Boundary-2" data-name="Boundary" fill="#fdbc54" stroke="rgba(0,0,0,0)" stroke-width="1" opacity="0">
          <rect width="26.869" height="26.869" stroke="none"/>
          <rect x="0.5" y="0.5" width="25.869" height="25.869" fill="none"/>
        </g>
        <path id="Path_star-four-points" data-name="Path / star-four-points" d="M13.371,1,9.109,9.109,1,13.371l8.109,4.261,4.261,8.109,4.261-8.109,8.109-4.261L17.632,9.109Z" transform="translate(0.064 0.064)" fill="#fdbc54"/>
      </g>
      <g id="MDI_star-four-points-2" data-name="MDI / star-four-points" transform="translate(154.903 145.346)">
        <g id="Boundary-3" data-name="Boundary" fill="#fdbc54" stroke="rgba(0,0,0,0)" stroke-width="1" opacity="0">
          <rect width="15.097" height="15.097" stroke="none"/>
          <rect x="0.5" y="0.5" width="14.097" height="14.097" fill="none"/>
        </g>
        <path id="Path_star-four-points-2" data-name="Path / star-four-points" d="M7.92,1,6.032,6.032,1,7.92,6.032,9.807,7.92,14.839,9.807,9.807,14.839,7.92,9.807,6.032Z" transform="translate(-0.371 -0.371)" fill="#fdbc54"/>
      </g>
      <g id="MDI_star-four-points-3" data-name="MDI / star-four-points" transform="translate(113.76 134.431)">
        <g id="Boundary-4" data-name="Boundary" fill="#fdbc54" stroke="rgba(0,0,0,0)" stroke-width="1" opacity="0">
          <rect width="15.097" height="15.097" stroke="none"/>
          <rect x="0.5" y="0.5" width="14.097" height="14.097" fill="none"/>
        </g>
        <path id="Path_star-four-points-3" data-name="Path / star-four-points" d="M7.92,1,6.032,6.032,1,7.92,6.032,9.807,7.92,14.839,9.807,9.807,14.839,7.92,9.807,6.032Z" transform="translate(-0.371 -0.371)" fill="#fdbc54"/>
      </g>
      <g id="MDI_star-four-points-4" data-name="MDI / star-four-points" transform="translate(147.354 175.574)">
        <g id="Boundary-5" data-name="Boundary" fill="#fdbc54" stroke="rgba(0,0,0,0)" stroke-width="1" opacity="0">
          <rect width="15.097" height="15.097" stroke="none"/>
          <rect x="0.5" y="0.5" width="14.097" height="14.097" fill="none"/>
        </g>
        <path id="Path_star-four-points-4" data-name="Path / star-four-points" d="M7.92,1,6.032,6.032,1,7.92,6.032,9.807,7.92,14.839,9.807,9.807,14.839,7.92,9.807,6.032Z" transform="translate(-0.371 -0.371)" fill="#fdbc54"/>
      </g>
      <g id="MDI_star-four-points-5" data-name="MDI / star-four-points" transform="translate(119.24 174.057)">
        <g id="Boundary-6" data-name="Boundary" fill="#fdbc54" stroke="rgba(0,0,0,0)" stroke-width="1" opacity="0">
          <rect width="15.097" height="15.097" stroke="none"/>
          <rect x="0.5" y="0.5" width="14.097" height="14.097" fill="none"/>
        </g>
        <path id="Path_star-four-points-5" data-name="Path / star-four-points" d="M7.92,1,6.032,6.032,1,7.92,6.032,9.807,7.92,14.839,9.807,9.807,14.839,7.92,9.807,6.032Z" transform="translate(-0.371 -0.371)" fill="#fdbc54"/>
      </g>
    </g>
  </g>
</svg>
